<?xml version="1.0" encoding="utf-8"?>
<!-- Generator: Adobe Illustrator 27.0.0, SVG Export Plug-In . SVG Version: 6.00 Build 0)  -->
<svg version="1.1" id="Layer_1" xmlns="http://www.w3.org/2000/svg" xmlns:xlink="http://www.w3.org/1999/xlink" x="0px" y="0px"
	 viewBox="0 0 60.74 11.133" style="enable-background:new 0 0 60.74 11.133;" xml:space="preserve">
<style type="text/css">
	.st0{fill:#FED136;}
</style>
<g>
	<path class="st0" d="M2.93,8.203v0.586H0V1.465h2.93v3.223L7.617,0h3.516L5.73,5.402l5.988,5.73H8.496L4.154,6.979L2.93,8.203z"/>
	<path class="st0" d="M10.935,1.465h2.93v7.324h-2.93V1.465z"/>
	<path class="st0" d="M17.38,3.516h-2.93V1.465h8.789v2.051h-2.93v5.273h-2.93V3.516z"/>
	<path class="st0" d="M32.615,6.738v2.051H24.71c-0.586,0-0.881-0.195-0.885-0.586V2.051c0-0.391,0.295-0.586,0.885-0.586h7.025
		c0.586,0,0.879,0.195,0.879,0.586v1.465l-5.859,0.006v3.223L32.615,6.738z"/>
	<path class="st0" d="M33.201,1.465h2.93v2.93h2.93v-2.93h2.93v7.324h-2.93V6.152h-2.93v2.637h-2.93V1.465z"/>
	<path class="st0" d="M43.46,1.465h7.025c0.586,0,0.879,0.195,0.879,0.586v1.465l-5.859,0.006v0.873h5.859v1.764l-5.859-0.006v0.885
		l5.859-0.006v1.758H43.46c-0.586,0-0.881-0.195-0.885-0.586V2.051C42.576,1.66,42.871,1.465,43.46,1.465z"/>
	<path class="st0" d="M51.951,2.051c0-0.391,0.293-0.586,0.879-0.586h1.758l3.223,3.223V1.465h2.93v6.738
		c0,0.391-0.293,0.586-0.879,0.586h-1.758l-3.223-2.93v2.93h-2.93V2.051z"/>
</g>
</svg>
